<?xml version="1.0" standalone="no"?>
<!DOCTYPE svg PUBLIC "-//W3C//DTD SVG 20010904//EN"
 "http://www.w3.org/TR/2001/REC-SVG-20010904/DTD/svg10.dtd">
<svg version="1.0" xmlns="http://www.w3.org/2000/svg"
 width="360.000000pt" height="360.000000pt" viewBox="0 0 360.000000 360.000000"
 preserveAspectRatio="xMidYMid meet">

<g transform="translate(0.000000,360.000000) scale(0.100000,-0.100000)"
fill="#000000" stroke="none">
<path d="M1594 3327 c-3 -10 9 -60 29 -120 20 -56 38 -111 42 -122 13 -40 -83
75 -116 139 -29 56 -49 81 -49 61 0 -17 50 -101 106 -176 l63 -86 -26 -12
c-25 -11 -25 -15 -19 -69 9 -88 72 -330 99 -381 19 -38 29 -47 54 -49 27 -3
34 2 47 26 40 78 46 343 9 420 -18 39 -63 62 -117 62 -32 0 -58 24 -35 32 5 2
-9 54 -31 116 -22 62 -40 118 -40 124 0 24 18 -10 54 -102 21 -52 41 -99 46
-103 4 -5 20 -1 34 8 34 22 41 15 27 -26 -14 -39 -6 -53 9 -15 23 60 0 87 -41
50 -20 -18 -20 -19 -79 133 -13 34 -32 73 -42 85 -15 21 -17 21 -24 5z m182
-332 c53 -22 64 -60 65 -215 0 -140 -6 -189 -28 -233 -21 -42 -53 -33 -81 23
l-23 45 38 6 c35 6 35 6 8 8 -45 2 -53 11 -69 81 -20 85 -22 80 22 81 l37 1
-38 8 c-20 4 -39 9 -41 11 -5 6 -36 145 -36 164 0 33 86 45 146 20z"/>
<path d="M1670 2890 c8 -5 31 -9 50 -9 l35 1 -30 8 c-16 4 -39 8 -50 9 -16 1
-17 -1 -5 -9z"/>
<path d="M1703 2703 c9 -14 56 -23 63 -12 3 5 -4 9 -15 9 -10 0 -27 3 -37 7
-11 4 -15 3 -11 -4z"/>
<path d="M2105 2967 c-107 -50 -128 -187 -41 -258 18 -15 19 -19 6 -34 -14
-17 -12 -21 30 -44 23 -12 134 -13 166 -1 43 16 83 59 90 95 3 20 -2 57 -14
97 -20 64 -19 106 2 120 16 11 -1 22 -37 24 -18 1 -63 5 -102 8 -50 5 -78 3
-100 -7z m178 -11 l38 -1 -6 -37 c-5 -26 0 -58 15 -103 24 -72 21 -96 -18
-138 -33 -35 -81 -48 -154 -40 -66 7 -63 2 -73 115 -6 77 8 123 51 163 15 14
22 25 17 25 -19 0 -62 -51 -74 -87 -6 -20 -9 -58 -6 -87 l6 -51 -29 33 c-43
47 -38 115 13 171 36 39 76 52 132 44 28 -4 67 -7 88 -7z"/>
<path d="M2174 2788 c-51 -56 -67 -78 -63 -83 3 -2 29 22 58 55 54 62 59 86 5
28z"/>
<path d="M2266 2772 c-21 -40 -82 -92 -117 -99 -16 -3 -29 -9 -29 -14 0 -12 5
-11 48 7 20 8 50 27 65 42 31 29 62 81 53 89 -2 3 -11 -8 -20 -25z"/>
<path d="M1252 2893 c-33 -6 -55 -46 -49 -85 5 -29 2 -35 -26 -53 -21 -13 -33
-30 -35 -47 -4 -36 24 -78 53 -78 28 0 71 33 89 69 13 23 20 27 50 23 72 -8
116 86 64 136 -40 36 -83 47 -146 35z m127 -39 c32 -27 38 -52 20 -85 -21 -40
-89 -47 -89 -8 0 24 -33 41 -63 33 -19 -4 -25 -1 -30 18 -4 13 0 32 9 45 12
19 23 23 68 23 44 0 60 -5 85 -26z m-85 -82 c9 -14 -31 -88 -60 -111 -34 -27
-54 -24 -74 11 -19 35 -8 54 46 85 40 23 79 30 88 15z"/>
<path d="M1254 2825 c-17 -13 -16 -14 17 -8 30 4 39 1 53 -18 12 -18 16 -20
16 -7 0 17 -36 48 -55 48 -6 0 -20 -7 -31 -15z"/>
<path d="M1408 2634 c-33 -18 -68 -81 -68 -124 0 -45 41 -84 83 -77 24 3 35
-1 50 -19 33 -43 85 -25 111 38 13 30 13 38 1 62 -8 15 -12 39 -9 56 10 45
-31 80 -93 80 -26 -1 -60 -8 -75 -16z m144 -24 c10 -12 18 -26 18 -31 0 -12
-26 -35 -70 -62 -19 -13 -39 -33 -45 -45 -30 -67 -117 -9 -98 66 10 42 34 73
68 88 41 19 105 11 127 -16z m21 -102 c32 -49 -47 -132 -87 -92 -26 26 -16 65
23 91 37 25 49 25 64 1z"/>
<path d="M2385 2547 c-44 -23 -98 -54 -120 -69 -22 -14 -91 -48 -153 -73 -129
-54 -194 -106 -262 -207 -31 -46 -40 -70 -40 -102 0 -57 31 -103 86 -127 40
-18 51 -19 97 -9 128 29 289 138 370 249 23 31 70 118 105 192 55 117 62 139
53 162 -15 38 -41 35 -136 -16z m123 -2 l2 -30 -20 24 c-25 29 -26 44 -2 39
11 -2 18 -14 20 -33z m-31 -11 l23 -35 -64 -132 c-74 -153 -136 -229 -248
-303 -122 -81 -239 -112 -298 -79 l-25 14 39 16 c97 41 269 126 264 130 -3 3
-66 -23 -141 -59 -178 -84 -174 -83 -189 -51 -10 23 -8 29 28 66 21 22 83 77
137 121 53 45 97 83 97 85 0 17 -134 -89 -232 -185 -43 -41 -48 -44 -48 -24 0
36 33 92 94 159 68 74 95 92 222 144 54 21 125 57 159 78 64 41 147 89 155 90
3 0 15 -16 27 -35z"/>
<path d="M1189 2370 c-58 -10 -80 -22 -113 -61 -52 -61 -24 -132 75 -190 59
-34 98 -59 183 -114 74 -48 241 -2 279 77 34 68 -5 141 -108 203 -92 55 -134
74 -190 84 -64 12 -60 12 -126 1z m211 -40 c24 -12 56 -30 70 -40 14 -9 43
-29 65 -43 70 -46 96 -123 59 -175 -22 -32 -89 -63 -149 -69 -68 -7 -93 -1
-140 37 -22 17 -70 47 -108 67 -115 61 -153 117 -120 181 28 52 85 73 193 68
64 -2 97 -9 130 -26z"/>
<path d="M1140 2195 c19 -19 38 -35 44 -35 5 0 -5 16 -24 35 -19 19 -38 35
-44 35 -5 0 5 -16 24 -35z"/>
<path d="M1365 2092 c15 -16 85 -27 85 -13 0 6 -13 11 -29 11 -16 0 -38 3 -48
6 -12 5 -15 4 -8 -4z"/>
<path d="M1350 1880 c-85 -10 -226 -45 -285 -70 -52 -22 -102 -64 -122 -103
-33 -64 -9 -157 53 -206 20 -16 24 -28 24 -70 l0 -51 -46 0 c-88 0 -142 -90
-131 -217 12 -122 66 -181 157 -169 l46 6 13 -62 c7 -35 18 -78 25 -97 16 -49
79 -116 134 -143 43 -21 59 -23 212 -23 91 0 327 4 525 9 282 7 367 12 392 23
36 17 72 83 92 168 6 28 23 97 37 155 17 68 27 147 31 228 l6 124 35 15 c62
26 112 -3 132 -76 23 -87 -31 -175 -124 -201 -49 -14 -58 -25 -26 -33 49 -13
123 22 164 76 24 33 35 175 17 229 -25 77 -94 103 -170 64 -18 -10 -34 -16
-36 -14 -1 2 -5 34 -8 71 l-5 68 49 24 c80 41 104 102 59 150 -54 58 -232 100
-481 114 -251 15 -685 21 -769 11z m660 -20 c361 -14 546 -55 593 -131 18 -29
-1 -68 -50 -99 -26 -17 -50 -30 -54 -30 -4 0 -10 13 -14 29 -24 111 -239 176
-615 188 -410 12 -793 -66 -851 -174 -16 -29 -5 -67 26 -87 76 -50 373 -84
580 -66 172 14 496 65 664 106 150 36 186 41 176 24 -10 -17 -114 -65 -200
-93 -266 -87 -635 -135 -884 -115 -281 22 -419 86 -438 202 -17 105 67 177
265 227 140 35 293 39 802 19z m-30 -60 c231 -18 405 -64 455 -120 l20 -22
-56 7 c-61 8 -327 17 -529 18 -84 1 -179 -7 -289 -23 -159 -23 -165 -23 -250
-7 -48 9 -105 17 -127 17 -44 0 -164 -52 -164 -72 0 -9 -3 -9 -12 0 -9 9 -7
18 8 39 47 64 133 98 330 134 210 37 390 46 614 29z m227 -138 c191 -7 245
-14 192 -27 -13 -3 -69 -16 -124 -30 -55 -13 -203 -41 -330 -62 -214 -35 -245
-37 -445 -38 -229 0 -328 11 -414 48 l-49 21 31 27 c17 15 56 35 86 45 52 17
60 17 133 1 101 -22 154 -21 327 3 203 28 202 28 301 23 50 -2 181 -7 292 -11z
m274 -94 c8 -31 14 -326 7 -388 -22 -208 -91 -357 -185 -396 -44 -19 -328 -44
-496 -44 -220 0 -519 37 -611 75 -52 22 -102 70 -120 116 -15 37 -23 123 -40
437 -4 56 -5 102 -4 102 2 0 27 -9 56 -20 93 -36 234 -54 417 -54 266 0 512
38 764 119 163 52 209 63 212 53z m193 -138 c43 -52 48 -205 8 -259 -23 -31
-79 -71 -100 -71 -9 0 5 14 32 30 52 33 85 91 86 147 0 47 -28 109 -57 128
-25 17 -78 17 -115 1 -32 -14 -20 13 15 34 49 30 100 26 131 -10z m-1654 -80
c0 -16 -7 -20 -36 -20 -19 0 -44 -5 -56 -11 -25 -13 -57 -84 -58 -126 0 -43
33 -130 61 -159 24 -26 20 -30 -13 -13 -34 18 -59 91 -60 173 0 118 41 173
130 175 26 1 32 -3 32 -19z m13 -175 c4 -76 5 -145 3 -152 -9 -21 -52 -15 -84
12 -80 67 -85 236 -8 274 12 5 35 9 51 8 l30 -2 8 -140z m166 -375 c164 -63
617 -90 940 -55 164 17 213 35 256 93 l27 37 -7 -30 c-10 -46 -34 -90 -61
-116 -25 -23 -29 -24 -247 -25 -122 -1 -336 -7 -476 -13 -260 -12 -312 -10
-393 15 -49 16 -120 82 -138 130 -15 39 -12 40 18 11 16 -15 52 -37 81 -47z"/>
<path d="M1430 1195 c0 -8 14 -30 31 -50 38 -43 33 -51 -42 -70 -46 -11 -49
-13 -21 -14 18 -1 48 6 67 13 41 17 46 43 14 72 -11 10 -25 27 -31 38 -9 17
-7 18 21 13 20 -4 30 -3 26 3 -10 16 -65 12 -65 -5z"/>
<path d="M2015 1200 c-7 -12 6 -150 15 -155 4 -2 5 29 2 70 -4 62 -2 75 10 75
8 0 23 -9 33 -20 17 -19 17 -21 -1 -42 -18 -20 -18 -21 -1 -15 10 4 21 7 23 7
12 0 1 49 -13 62 -22 19 -61 29 -68 18z"/>
<path d="M1640 1172 c54 -26 50 -82 -6 -82 -25 0 -60 42 -49 60 3 5 1 10 -4
10 -20 0 -11 -41 14 -65 28 -29 42 -31 73 -9 45 31 15 105 -43 104 -15 -1 -11
-5 15 -18z"/>
<path d="M1907 1183 c-4 -3 -7 -16 -7 -28 0 -22 -28 -55 -47 -55 -20 0 -63 42
-63 61 0 10 -5 19 -11 19 -17 0 0 -43 27 -67 46 -42 96 -24 109 38 7 31 4 44
-8 32z"/>
<path d="M2106 530 c-16 -5 -77 -33 -134 -62 l-105 -53 -161 1 c-89 0 -214 6
-279 13 -93 10 -125 10 -148 1 -37 -16 -48 -53 -24 -80 41 -45 93 -47 491 -19
186 12 194 12 295 -9 151 -32 205 -28 256 20 49 46 34 139 -29 178 -35 21
-108 26 -162 10z m140 -16 c67 -32 85 -115 36 -164 -41 -41 -91 -46 -203 -19
-83 19 -111 21 -268 16 -97 -3 -231 -11 -297 -18 -137 -14 -217 -4 -250 32
-17 19 -17 20 3 41 25 25 22 25 288 4 255 -20 297 -15 429 51 148 75 200 86
262 57z"/>
<path d="M2237 386 c-35 -26 -122 -27 -179 -3 -21 9 -38 12 -38 8 0 -18 69
-36 137 -36 62 0 76 3 95 22 30 30 20 36 -15 9z"/>
</g>
</svg>
